<?xml version="1.0" encoding="utf-8"?>
<!-- Generator: Adobe Illustrator 17.0.0, SVG Export Plug-In . SVG Version: 6.00 Build 0)  -->
<!DOCTYPE svg PUBLIC "-//W3C//DTD SVG 1.1//EN" "http://www.w3.org/Graphics/SVG/1.1/DTD/svg11.dtd">
<svg version="1.1" id="Layer_1" xmlns="http://www.w3.org/2000/svg" xmlns:xlink="http://www.w3.org/1999/xlink" x="0px" y="0px"
	 width="723.26px" height="341.041px" viewBox="0 0 723.26 341.041" enable-background="new 0 0 723.26 341.041"
	 xml:space="preserve">
<g>
	<path fill="#018E9F" d="M92.209,203.459c10.742,0,20.661-2.662,29.791-7.968c9.095-5.283,16.328-12.696,21.71-22.255
		c5.383-9.558,8.058-19.675,8.058-30.357c0-10.665-2.708-20.842-8.148-30.519c-5.405-9.648-12.707-17.152-21.847-22.536
		c-9.14-5.371-18.901-8.074-29.305-8.074c-10.584,0-20.595,2.703-30.118,8.074c-9.513,5.383-16.825,12.611-21.915,21.707
		c-5.124,9.096-7.663,19.397-7.663,30.785c0,17.394,5.722,31.925,17.13,43.615C61.368,197.613,75.474,203.459,92.209,203.459
		 M14.717,218.085V9.796h19.274v83.849c8.102-9.924,17.176-17.378,27.207-22.287c10.055-4.965,21.045-7.402,33.019-7.402
		c21.271,0,39.428,7.707,54.471,23.127c15.053,15.437,22.614,34.135,22.614,56.163c0,21.724-7.628,40.26-22.806,55.653
		c-15.2,15.428-33.47,23.073-54.842,23.073c-12.232,0-23.325-2.624-33.301-7.893c-9.919-5.259-18.721-13.124-26.361-23.616v27.622
		H14.717z"/>
	<path fill="#018E9F" d="M194.028,67.86v150.225h-19.273V67.86H194.028z M184.313,5.908c4.367,0,8.079,1.568,11.149,4.729
		c3.103,3.092,4.649,6.906,4.649,11.307c0,4.357-1.546,8.063-4.649,11.2c-3.07,3.12-6.782,4.711-11.149,4.711
		c-4.266,0-7.945-1.591-11.036-4.711c-3.07-3.137-4.616-6.844-4.616-11.2c0-4.4,1.546-8.214,4.616-11.307
		C176.368,7.477,180.046,5.908,184.313,5.908"/>
	<path fill="#018E9F" d="M278.967,82.959c-16.047,0-29.825,5.953-41.346,17.819c-11.555,11.899-17.3,26.259-17.3,43.095
		c0,10.891,2.63,21.024,7.888,30.391c5.236,9.395,12.334,16.646,21.306,21.746c8.925,5.132,18.743,7.66,29.452,7.66
		c10.686,0,20.515-2.527,29.464-7.66c8.948-5.1,16.046-12.351,21.282-21.746c5.258-9.367,7.888-19.5,7.888-30.391
		c0-16.835-5.801-31.195-17.344-43.095C308.679,88.912,294.911,82.959,278.967,82.959 M279.023,63.957
		c23.179,0,42.328,8.356,57.585,25.13c13.847,15.303,20.775,33.386,20.775,54.302c0,20.996-7.325,39.339-21.96,55.038
		c-14.637,15.703-33.426,23.547-56.4,23.547c-23.077,0-41.899-7.844-56.524-23.547c-14.59-15.699-21.959-34.042-21.959-55.038
		c0-20.815,6.951-38.887,20.775-54.161C236.547,72.374,255.788,63.957,279.023,63.957"/>
	<rect x="362.2" y="9.796" fill="#8E8769" width="19.252" height="208.289"/>
	<g>
		<path fill="#8E8769" d="M465.319,82.485c-10.732,0-20.64,2.669-29.726,7.961c-9.061,5.298-16.293,12.723-21.664,22.269
			c-5.372,9.608-8.046,19.714-8.046,30.402c0,10.607,2.707,20.719,8.102,30.407c5.416,9.655,12.683,17.171,21.801,22.575
			c9.131,5.386,18.938,8.071,29.396,8.071c10.552,0,20.549-2.651,29.994-8.003c9.457-5.349,16.736-12.587,21.815-21.678
			c5.1-9.102,7.65-19.388,7.65-30.792c0-17.431-5.723-31.987-17.154-43.678C496.069,88.342,482.032,82.485,465.319,82.485
			 M542.675,67.86v150.225h-19.275v-25.843c-8.068,9.841-17.141,17.3-27.207,22.278c-10.054,4.947-21.045,7.453-32.973,7.453
			c-21.203,0-39.326-7.714-54.347-23.14c-14.997-15.423-22.489-34.185-22.489-56.28c0-21.611,7.549-40.145,22.714-55.52
			c15.145-15.387,33.37-23.077,54.662-23.077c12.347,0,23.452,2.64,33.427,7.865c9.963,5.27,18.721,13.146,26.213,23.663V67.86
			H542.675z"/>
		<path fill="#8E8769" d="M637.181,203.459c10.754,0,20.662-2.662,29.781-7.968c9.084-5.283,16.305-12.696,21.723-22.255
			c5.369-9.558,8.057-19.675,8.057-30.357c0-10.665-2.72-20.842-8.136-30.519c-5.417-9.648-12.685-17.152-21.858-22.536
			c-9.152-5.371-18.914-8.074-29.318-8.074c-10.562,0-20.606,2.703-30.117,8.074c-9.514,5.383-16.824,12.611-21.915,21.707
			c-5.11,9.096-7.651,19.397-7.651,30.785c0,17.394,5.711,31.925,17.164,43.615C606.341,197.613,620.435,203.459,637.181,203.459
			 M559.69,218.085V9.796h19.252v83.849c8.112-9.924,17.185-17.378,27.229-22.287c10.021-4.965,21.033-7.402,32.995-7.402
			c21.283,0,39.428,7.707,54.516,23.127c15.041,15.437,22.557,34.135,22.557,56.163c0,21.724-7.582,40.26-22.77,55.653
			c-15.201,15.428-33.506,23.073-54.855,23.073c-12.244,0-23.314-2.624-33.277-7.893c-9.965-5.259-18.744-13.124-26.395-23.616
			v27.622H559.69z"/>
	</g>
</g>
<g>
	<path fill="#018E9F" d="M49.53,336.64h-8.791v-8.875h8.791V336.64z M34.42,336.64h-8.767v-8.875h8.767V336.64z M80.133,296.615
		v9.113c-9.84,0-12.638-1.508-16.317-7.037c-2.55,12.465-13.248,20.307-26.258,20.307c-15.358,0-27.489-12.012-27.489-27.737v-8.954
		h8.938v7.898c0,12.402,7.211,20.16,18.766,20.16c10.393,0,18.224-6.895,18.224-15.042c0-4.942-2.945-8.457-8.08-8.457
		c-0.474,0-0.947,0-1.421,0.101v-8.165h3.52c7.031,0,12.289,3.189,15.81,9.503c3.261,5.992,6.398,8.311,10.946,8.311H80.133z"/>
	<path fill="#018E9F" d="M103.921,250.05c0.147,0.643,0.248,1.122,0.248,1.522c0,1.49-1.219,2.866-3.678,2.866
		c-1.366,0-2.494-0.892-3.532-2.641c-0.158,2.562-1.433,4.221-3.825,4.221c-1.75,0-3.036-1.027-3.42-3.018l-1.286-6.066l2.55-0.643
		l1.207,5.506c0.226,0.857,0.643,1.36,1.196,1.36c1.05,0,1.919-1.275,1.919-2.297c0-0.345-0.079-0.649-0.17-0.97l-0.869-4.249
		l2.63-0.559l0.879,4.164c0.316,1.613,1.118,2.466,2.472,2.466c0.733,0,1.027-0.396,1.027-1.197c0-0.225,0-0.377-0.056-0.625
		l-1.117-5.508l2.64-0.479L103.921,250.05z"/>
	<path fill="#018E9F" d="M101.213,323.308h-8.802v-8.949h8.802V323.308z M114.698,305.728h-36.9v-9.113h8.306
		c2.64,0,4.4-0.863,5.36-2.725c0.632-1.18,0.948-3.279,0.948-6.06v-18.37h8.858v17.885c0,4.711-0.609,7.758-1.896,9.271h15.325
		V305.728z"/>
	<path fill="#018E9F" d="M170.793,296.615c0.067-0.863,0.067-1.669,0.067-2.566c0-10.213-4.638-16.759-12.3-16.759
		c-8.938,0-18.281,8.136-23.506,19.325H170.793z M189.074,305.728h-76.441v-9.113h15.504v-42.424h8.78l-1.117,28.933
		c7.414-9.523,15.087-13.801,23.584-13.801c13.475,0,20.414,9.164,20.673,27.292h9.017V305.728z"/>
	<path fill="#018E9F" d="M209.601,291.26c0,9.671-4.469,14.468-13.418,14.468h-9.434v-9.113h7.595c2.968,0,4.819-0.863,5.642-2.629
		c0.429-0.971,0.665-2.895,0.665-5.761v-34.034h8.949V291.26z"/>
	<rect x="217.839" y="254.123" fill="#018E9F" width="8.846" height="51.605"/>
	<path fill="#018E9F" d="M291.718,323.234h-8.802v-8.976h8.802V323.234z M317.751,269.459v23.471
		c0,8.025-4.469,12.798-12.379,12.798h-28.99c-16.949,0-25.424-7.505-25.424-22.626v-13.643h8.879v13.643
		c0,5.202,1.536,8.853,4.549,10.946c2.392,1.703,6.083,2.566,10.956,2.566h21.881c4.074,0,6.884-0.468,8.384-1.513
		c2.234-1.448,3.363-4.259,3.363-8.333v-17.31H317.751z"/>
	<path fill="#018E9F" d="M364.006,254.191v38.982c0,7.595-5.427,12.555-14.083,12.555h-23.855v-9.113h12.198l-10.053-36.748h9.432
		l9.987,36.748c2.472,0,4.244-0.564,5.406-1.755c1.535-1.495,2.268-4.062,2.268-7.678v-32.991H364.006z"/>
	<path fill="#018E9F" d="M397.229,296.615v-10.951c-0.476-4.705-3.194-8.058-7.811-8.058c-5.292,0-8.654,3.661-8.654,9.039
		c0,5.507,3.771,9.97,8.566,9.97H397.229z M417.146,305.728h-10.879c-1.184,8.789-7.031,13.191-17.423,13.191v-7.042
		c4.626,0,7.594-1.93,8.882-6.149h-8.566c-9.66,0-17.491-8.08-17.491-18.598c0-10.568,7.741-17.751,17.908-17.751
		c9.739,0,16.589,7.533,16.589,17.965v9.271h10.98V305.728z"/>
	<path fill="#018E9F" d="M438.37,323.234h-8.79v-8.976h8.79V323.234z M451.698,305.728h-36.81v-9.113h8.555
		c2.617,0,4.468-0.863,5.428-2.715c0.621-1.19,0.936-3.289,0.936-6.07v-18.37h8.882v17.885c0,4.711-0.645,7.758-1.998,9.271h15.009
		V305.728z M423.272,323.234h-8.779v-8.976h8.779V323.234z"/>
	<path fill="#018E9F" d="M472.077,323.234h-8.711v-8.976h8.711V323.234z M472.157,291.26c0,9.671-4.469,14.468-13.338,14.468h-8.633
		v-9.113h6.805c2.934,0,4.783-0.863,5.688-2.629c0.383-0.971,0.621-2.895,0.621-5.761v-18.766h8.857V291.26z"/>
	<path fill="#018E9F" d="M531.187,305.728h-14.287c-1.365,8.53-8.645,13.27-19.499,13.27v-7.701c7.426,0,11.103-3.64,11.103-11.335
		v-30.502h8.949v27.155h13.734V305.728z"/>
	<path fill="#018E9F" d="M551.544,323.308h-8.791v-8.949h8.791V323.308z M565.062,305.728h-36.889v-9.113h8.282
		c2.642,0,4.392-0.863,5.36-2.725c0.643-1.18,0.938-3.279,0.938-6.06v-18.37h8.891v17.885c0,4.711-0.643,7.758-1.939,9.271h15.357
		V305.728z"/>
	<path fill="#018E9F" d="M586.062,262.001h-8.79v-8.842h8.79V262.001z M599.48,305.728H562.58v-9.113h8.305
		c2.64,0,4.391-0.863,5.349-2.715c0.643-1.19,0.959-3.289,0.959-6.07v-18.37h8.869v17.885c0,4.711-0.631,7.758-1.894,9.271h15.312
		V305.728z M570.885,262.001h-8.779v-8.842h8.779V262.001z"/>
	<path fill="#018E9F" d="M630.41,261.944h-8.802v-8.848h8.802V261.944z M661.149,305.728h-64.141v-9.113h46.164
		c0-4.948-1.354-9.19-4.152-12.712c-3.262-4.062-7.898-6.049-13.734-6.049c-2.006,0-4.23,0.48-6.714,1.502
		c-2.876,1.212-5.28,2.883-7.198,5.02c-0.869-1.663-2.303-3.982-4.311-7.018c2.504-2.324,5.279-4.215,8.553-5.653
		c3.533-1.525,7.03-2.245,10.562-2.245c5.496,0,10.371,1.286,14.522,3.814c7.269,4.491,11.262,12.244,11.996,23.342h8.452V305.728z"
		/>
	<path fill="#018E9F" d="M696.301,294.386c0-6.082-3.692-10.642-8.949-10.642c-5.044,0-8.632,4.243-8.632,10.241
		c0,5.976,3.758,10.54,9.106,10.54C692.792,304.526,696.301,300.458,696.301,294.386 M705.476,294.386
		c0,10.606-7.268,18.45-17.875,18.45c-6.162,0-11.049-2.409-14.455-7.108h-14.4v-9.113h11.037l-0.078-0.405
		c-0.092-0.695-0.182-1.422-0.182-2.161c0-10.686,7.436-18.372,18.078-18.372C698.208,275.676,705.476,283.903,705.476,294.386"/>
</g>
</svg>
